SplineFontDB: 3.0
FontName: Parkosz
FullName: Parkosz
FamilyName: Parkosz
Weight: Medium
Copyright: Created by Maciej Strzelczyk, with FontForge 2.0 (http://fontforge.sf.net)
UComments: "2013-6-9: Created." 
Version: 001.000
ItalicAngle: 0
UnderlinePosition: -120
UnderlineWidth: 60
Ascent: 800
Descent: 400
LayerCount: 2
Layer: 0 0 "Warstwa t+AUIA-a"  1
Layer: 1 0 "Plan pierwszy"  0
XUID: [1021 90 1930998488 16230043]
FSType: 8
OS2Version: 0
OS2_WeightWidthSlopeOnly: 0
OS2_UseTypoMetrics: 1
CreationTime: 1370812374
ModificationTime: 1371675644
PfmFamily: 17
TTFWeight: 500
TTFWidth: 5
LineGap: 108
VLineGap: 0
OS2TypoAscent: 0
OS2TypoAOffset: 1
OS2TypoDescent: 0
OS2TypoDOffset: 1
OS2TypoLinegap: 108
OS2WinAscent: 0
OS2WinAOffset: 1
OS2WinDescent: 0
OS2WinDOffset: 1
HheadAscent: 0
HheadAOffset: 1
HheadDescent: 0
HheadDOffset: 1
OS2Vendor: 'PfEd'
MarkAttachClasses: 1
DEI: 91125
LangName: 1033 
Encoding: UnicodeFull
UnicodeInterp: none
NameList: Adobe Glyph List
DisplaySize: -24
AntiAlias: 1
FitToEm: 1
WidthSeparation: 180
WinInfo: 0 51 17
BeginPrivate: 0
EndPrivate
Grid
-1200 -193.76 m 0
 2400 -193.76 l 0
  Named: "D+APMBQgAA" 
-1200 630 m 0
 2400 630 l 0
  Named: "Du+AXwA-e" 
-1200 423 m 0
 2400 423 l 0
  Named: "Ma+AUIA-e" 
EndSplineSet
BeginChars: 1114112 32

StartChar: a
Encoding: 97 97 0
Width: 539
VWidth: 0
Flags: W
HStem: 0 56<149.124 242.615> 390.4 32.7998<427.285 437.626>
VStem: 76.0264 63.2002<61.0674 297.929> 293.626 66.4004<62.8132 84>
LayerCount: 2
Fore
SplineSet
76.0264 157.6 m 0
 76.0264 308.8 146.426 404.8 227.227 420 c 0
 243.227 423.2 254.426 423.2 267.227 423.2 c 3
 297.626 423.2 322.426 415.2 331.227 400.8 c 0
 344.026 380.8 362.426 423.2 362.426 423.2 c 1
 437.626 423.2 l 1
 460.026 390.4 l 1
 389.626 401.6 360.026 172 360.026 94.4004 c 0
 360.026 4.7998 450.426 110.4 466.426 204.8 c 1
 487.227 158.4 463.227 0 378.426 0 c 0
 290.426 0 293.626 84 293.626 84 c 1
 283.227 48 235.227 0 187.227 0 c 0
 137.626 0 76.0264 32.7998 76.0264 157.6 c 0
179.227 56 m 0
 293.626 56 356.826 276.8 300.026 376 c 0
 289.626 394.4 256.826 396 238.426 386.4 c 0
 166.426 347.2 139.227 244 139.227 161.6 c 0
 139.227 124 141.626 56 179.227 56 c 0
EndSplineSet
EndChar

StartChar: b
Encoding: 98 98 1
Width: 611
VWidth: 0
Flags: W
HStem: 0 85.5625<243.28 359.642> 313.33 10.9756<55.5764 70.4844> 350.432 73.9424<323.663 426.349> 610 20G<339.522 373.272> 610 20G<339.522 373.272>
VStem: 137.154 88.0537<103.296 247.192> 444.523 97.5215<180.724 333.366>
LayerCount: 2
Fore
SplineSet
444.523 267.714 m 0xe6
 444.523 301.605 423.474 350.432 379.209 350.432 c 0
 313.485 350.432 225.208 244.259 225.208 163.976 c 0
 225.208 126.928 249.908 85.5625 293.951 85.5625 c 0
 363.913 85.5625 444.523 186.368 444.523 267.714 c 0xe6
321.607 410.482 m 1
 355.293 416.157 391.42 424.374 423.457 424.374 c 0
 454.13 424.374 481.055 416.843 498.498 392.34 c 0
 529.54 348.732 542.045 305.59 542.045 264.951 c 3
 542.045 157.984 457.431 68.3477 403.128 33.1504 c 0
 368.822 10.9131 329.803 0 292.396 0 c 3
 215.516 0 145.454 42.5967 137.154 118.688 c 1
 137.154 193.4 172.267 279.973 187.766 331.546 c 1
 149.043 322.801 108.994 313.33 82.7012 313.33 c 0
 67.8037 313.33 57.3232 316.37 54 324.306 c 1
 112.144 339.303 176.488 372.853 208.214 407.459 c 1
 224.771 534.169 219.52 543.903 255.614 592.104 c 0
 280.465 625.284 324.021 630 355.023 630 c 0xf6
 391.521 630 411.023 585.667 411.023 549.576 c 0
 411.023 489.576 355.901 441.686 321.607 410.482 c 1
280.931 454.588 m 1
 297.941 467.237 332.377 505.357 344.85 534.669 c 0
 350.521 548 350.686 571.085 336.853 576.328 c 1
 327.01 579.911 310.765 569.533 301.859 553.672 c 0
 291.188 534.667 277.506 484.084 280.931 454.588 c 1
EndSplineSet
EndChar

StartChar: c
Encoding: 99 99 2
Width: 458
VWidth: 0
Flags: W
HStem: 0 21G<182.8 208.8> 403.2 20G<274.4 324.4>
VStem: 70 322.4<276 331.2>
LayerCount: 2
Fore
SplineSet
288.4 389.6 m 0
 179.6 348.8 118.8 56.7998 204.4 33.5996 c 1
 277.2 22.4004 292.4 94.4004 344.4 188 c 0
 350 196.8 379.6 201.6 379.6 167.2 c 1
 348.4 92 298 12 222.8 1.59961 c 0
 217.2 0.799805 211.6 0 206 0 c 3
 159.6 0 103.6 20 81.2002 98.4004 c 0
 74 124 70 147.2 70 169.6 c 3
 70 342.4 256.4 423.2 292.4 423.2 c 0
 356.4 423.2 367.6 405.6 387.6 353.6 c 1
 390.8 342.4 392.4 331.2 392.4 320 c 3
 392.4 276 366.8 237.6 311.6 249.6 c 0
 271.6 259.2 289.2 320.8 336.4 347.2 c 1
 346.8 361.6 324.4 403.2 288.4 389.6 c 0
EndSplineSet
EndChar

StartChar: d
Encoding: 100 100 3
Width: 584
VWidth: 0
Flags: W
HStem: 0 40<137.399 247.911> 393.6 29.6006<248.959 322.513> 604 27.2002<279 430.025 511.961 532.6>
LayerCount: 2
Fore
SplineSet
71 186.4 m 24,0,-1
279 631.2 m 1,1,-1
 354.199 631.2 443 631.2 532.6 631.2 c 1,4,-1
 532.6 604 l 1,5,-1
 511.8 604 515 600.8 511 587.2 c 2,8,-1
 385.399 88 l 2,9,-1
 381.399 68 400.6 56 419.8 64 c 0,12,-1
 472.6 85.5996 477.399 140.8 499 188.8 c 1,15,-1
 521.399 101.6 480.6 0 401.399 0 c 0,18,-1
 363.8 0 307 0 307 85.5996 c 1,21,-1
 292.6 44.7998 242.199 0 177.399 0 c 0,24,-1
 97.3994 0 71 99.2002 71 186.4 c 3,27,-1
 71 317.6 179 423.2 271 423.2 c 3,30,-1
 319.8 423.2 362.199 421.6 375 356.8 c 1,33,-1
 431.8 586.4 l 2,34,-1
 435.8 603.2 429.399 604 415.8 604 c 0,37,-1
 340.6 604 313.399 604 279 604 c 1,40,-1
 279 638.4 279 610.4 279 631.2 c 1,1,-1
204.6 40 m 0,43,-1
 245.399 40 293.399 92.7998 319 192.8 c 0,46,-1
 350.199 313.6 351 393.6 286.199 393.6 c 3,49,-1
 241.399 393.6 195 333.6 178.199 204.8 c 0,52,-1
 160.6 71.2002 179.8 40 204.6 40 c 0,43,-1
EndSplineSet
EndChar

StartChar: e
Encoding: 101 101 4
Width: 430
VWidth: 0
Flags: W
HStem: 0 38.4004<159.171 253.457> 363.2 59.2002<216.283 296.855>
VStem: 57 308.8
LayerCount: 2
Fore
SplineSet
341 200 m 1
 341 156 321 0 181.8 0 c 3
 97.7998 0 69.7998 68.7998 85.7998 200.8 c 1
 74.5996 203.2 68.2002 207.2 57 221.6 c 1
 73 215.2 74.5996 213.6 89 215.2 c 1
 121 337.6 176.2 422.4 277.8 422.4 c 3
 330.6 422.4 365.8 387.2 365.8 316 c 3
 365.8 258.4 269 197.6 169.8 197.6 c 1
 141.8 104 134.6 38.4004 201 38.4004 c 3
 273 38.4004 297 114.4 341 200 c 1
176.2 223.2 m 1
 207.4 228.8 246.6 236 267.4 251.2 c 0
 310.6 284 313.8 363.2 261 363.2 c 3
 201 363.2 185.8 271.2 176.2 223.2 c 1
EndSplineSet
EndChar

StartChar: f
Encoding: 102 102 5
Width: 612
VWidth: 0
Flags: W
HStem: -191.6 123.199<63.7112 153.031> 363.6 40<205 318.6 398.6 459.4> 570 60<420.517 518.721>
VStem: 49 113.6<-129.798 -74.155> 318.6 72<187.526 363.6 403.6 496.243> 481.8 82.4004<532.204 568.576>
LayerCount: 2
Fore
SplineSet
129.8 -191.6 m 3
 83.4004 -191.6 49 -168.4 49 -121.2 c 3
 49 -88.4004 63.4004 -68.4004 109 -68.4004 c 3
 155.4 -68.4004 155.4 -94 162.6 -130.8 c 1
 190.6 -149.2 263.4 -113.2 318.6 363.6 c 1
 205 363.6 l 1
 205 403.6 l 1
 326.6 403.6 l 1
 345 580.4 419.4 630 479.4 630 c 3
 556.2 630 564.2 591.6 564.2 557.2 c 3
 564.2 509.2 481.8 475.6 481.8 530 c 3
 481.8 561.2 476.2 570 453 570 c 3
 421.8 570 398.6 519.6 398.6 403.6 c 1
 459.4 403.6 l 1
 459.4 363.6 l 1
 390.6 363.6 l 1
 327.4 -183.6 209 -191.6 129.8 -191.6 c 3
EndSplineSet
EndChar

StartChar: g
Encoding: 103 103 6
Width: 525
VWidth: 0
Flags: W
HStem: -320 115.2<205.784 290.103> 342.4 80.7998<235.438 342.767>
VStem: 52 98.4004<-235.78 -162.063> 83.2002 84<90.3664 266.087> 377.6 70.4004<136.827 304.642>
LayerCount: 2
Fore
SplineSet
349.6 57.5996 m 1xe8
 311.2 4 248 -6.40039 195.2 4 c 0
 130.4 16.7998 83.2002 71.2002 83.2002 152.8 c 3xd8
 83.2002 257.6 140.8 423.2 280 423.2 c 3
 364 423.2 448 396 448 247.2 c 3
 448 185.6 448 189.6 434.4 125.6 c 1
 434.4 -84.7998 380.8 -92.7998 325.6 -115.2 c 0
 238.4 -150.4 150.4 -144 150.4 -198.4 c 0
 150.4 -268.8 222.4 -223.2 267.2 -204.8 c 0
 289.6 -195.2 304.8 -212 304.8 -252.8 c 3
 304.8 -311.2 248.8 -320 192.8 -320 c 3
 106.4 -320 52 -296 52 -198.4 c 3
 52 -104 104 -92.7998 174.4 -72.7998 c 0
 258.4 -48.7998 349.6 -91.2002 349.6 57.5996 c 1xe8
223.2 71.2002 m 0
 292 59.2002 377.6 139.2 377.6 206.4 c 3
 377.6 258.4 352 342.4 298.4 342.4 c 3
 227.2 342.4 167.2 248 167.2 180 c 0
 167.2 140 182.4 78.4004 223.2 71.2002 c 0
EndSplineSet
EndChar

StartChar: h
Encoding: 104 104 7
Width: 516
VWidth: 0
Flags: W
HStem: 0 21G<67.8618 89.8618 284.662 367.062> 381.6 41.6006<224.913 326.299> 591.6 38.4004<77.0615 196.693>
LayerCount: 2
Fore
SplineSet
77.0615 630 m 1
 279.462 630 l 1
 220.262 392.8 l 1
 222.662 413.6 266.662 423.2 299.462 423.2 c 3
 309.062 423.2 319.462 421.6 325.861 420 c 0
 376.262 408 401.861 368.8 390.662 316.8 c 0
 373.861 237.6 301.861 156.8 350.662 91.2002 c 0
 381.062 50.4004 441.062 137.6 448.262 187.2 c 1
 475.462 96 405.062 0 329.062 0 c 0
 240.262 0 259.462 148 313.062 237.6 c 0
 344.262 288 364.262 381.6 275.462 381.6 c 0
 199.462 381.6 196.262 304.8 185.062 263.2 c 2
 126.662 37.5996 l 2
 117.861 4 102.662 0 77.0615 0 c 0
 58.6621 0 50.9385 17.7354 59.4619 49.5996 c 2
 195.462 558 l 1
 202.662 591.6 184.262 591.6 165.062 591.6 c 2
 77.0615 591.6 l 1
 77.0615 630 l 1
EndSplineSet
EndChar

StartChar: i
Encoding: 105 105 8
Width: 369
VWidth: 0
Flags: W
HStem: 0 41.3447<172.827 238.121> 393.624 29.376<133.513 194.309> 523.376 106.624<205.986 297.142>
VStem: 94.4512 76.1602<41.857 168.539> 198.252 106.624<531.11 622.266> 205.352 70.7207<258.846 391.742>
LayerCount: 2
Fore
SplineSet
65 269.592 m 1xf4
 76.9678 340.312 94.375 423 182.503 423 c 3
 241.255 423 276.072 388.185 276.072 334.872 c 3
 276.072 242.392 170.611 182.784 170.611 88.1279 c 3
 170.611 66.3682 170.611 41.3447 199.988 41.3447 c 3
 243.508 41.3447 271.796 112.064 306.611 165.375 c 1
 306.611 89.2158 265.268 0 177.139 0 c 3
 133.619 0 94.4512 21.7598 94.4512 88.1279 c 3
 94.4512 200.192 205.352 240.215 205.352 334.872 c 3
 205.352 369.688 193.383 393.624 170.535 393.624 c 3
 117.223 393.624 99.8154 328.344 65 269.592 c 1xf4
304.876 576.688 m 3xf8
 304.876 547.312 280.94 523.376 251.563 523.376 c 3
 222.188 523.376 198.252 547.312 198.252 576.688 c 3
 198.252 606.064 222.188 630 251.563 630 c 3
 280.94 630 304.876 606.064 304.876 576.688 c 3xf8
EndSplineSet
EndChar

StartChar: j
Encoding: 106 106 9
Width: 526
VWidth: 0
Flags: W
HStem: -193.76 45<173.449 271.003> 0 40<180.374 250.097> 378 45<265.393 361.173>
LayerCount: 2
Fore
SplineSet
48 -108.76 m 0
 48 -68.7598 68 -43.7598 103 -43.7598 c 0
 172.791 -43.7598 148 -148.76 208 -148.76 c 0
 308 -148.76 313.986 -42.9512 313.986 24.8457 c 1
 278.661 5.51953 243.603 0 200 0 c 0
 110.792 0 93 87.1973 93 148 c 0
 93 328 228 423 293 423 c 0
 341.095 423 374.167 409.404 384.079 377.89 c 1
 418.871 377.89 426.648 430.985 466 423 c 1
 422.846 55.832 378 -193.76 193 -193.76 c 0
 128.905 -193.76 48 -173.03 48 -108.76 c 0
205 40 m 0
 310 40 441.436 378 323 378 c 0
 188 378 121.424 40 205 40 c 0
EndSplineSet
EndChar

StartChar: k
Encoding: 107 107 10
Width: 527
VWidth: 0
Flags: W
HStem: 0 46.6484<296.058 382.702> 315.936 107.064<377.912 469.099> 592.4 37.5996<77.1934 204.894>
LayerCount: 2
Fore
SplineSet
138.791 18.7998 m 2
 133.733 0 119.634 0 96.1338 0 c 0
 67.9346 0 48.6865 0.117188 53.834 18.7998 c 2
 204.095 564.2 l 1
 213.494 592.4 194.693 592.4 175.895 592.4 c 2
 77.1934 592.4 l 1
 77.1934 630 l 1
 307.494 630 l 1
 204.233 253.8 l 1
 237.134 253.8 255.935 244.4 271.772 230.922 c 1
 326.435 343.1 357.421 423 419.494 423 c 0
 448.019 423 474.921 409.936 474.921 372.335 c 0
 474.921 339.436 459.604 315.936 432.621 315.936 c 0
 404.421 315.936 383.419 315.618 373.942 352.604 c 1
 363.913 386.379 340.533 329 286.267 220.568 c 1
 359.334 155.1 288.834 46.6484 348.381 46.6484 c 0
 396.935 46.6484 425.134 108.1 449.835 146.031 c 1
 439.233 79.9004 396.935 0 312.334 0 c 0
 279.782 0 255.935 32.9004 255.935 65.7998 c 0
 255.935 102.009 263.675 110.72 270.033 145.7 c 0
 279.435 197.4 232.435 220.9 192.455 211.5 c 1
 138.791 18.7998 l 2
EndSplineSet
EndChar

StartChar: l
Encoding: 108 108 11
Width: 387
VWidth: 0
Flags: W
HStem: 0 21G<176.499 244.48> 610 20G<232.27 273.818> 610 20G<232.27 273.818>
VStem: 277.715 46<377.776 567.985>
LayerCount: 2
Fore
SplineSet
299.164 123.828 m 0xd0
 376.392 123.828 276.911 0 212.05 0 c 0
 140.948 0 102.763 19.0791 107.184 51.1982 c 2
 130.516 220.698 l 1
 80.1797 181.148 l 2
 65.7979 169.849 47.1787 203.749 58.4795 215.049 c 1
 137.578 277.198 l 1
 178.083 589.528 l 2
 181.584 617.543 214.825 630 249.715 630 c 0
 297.921 630 323.715 570.387 323.715 504 c 0
 323.715 414 329.174 376.849 197.868 273.619 c 1
 177.129 90.749 l 2
 167.897 9.35352 281.492 123.828 299.164 123.828 c 0xd0
204.344 330.137 m 1
 253.522 368.777 277.715 381.184 277.715 487 c 0
 277.715 554 239.333 610.048 231.253 545.41 c 2
 204.344 330.137 l 1
EndSplineSet
EndChar

StartChar: m
Encoding: 109 109 12
Width: 825
VWidth: 0
Flags: W
HStem: -193.5 40.25<638.453 739.316> 359.95 63.25<145.812 239.972> 382.36 40.8398<594.563 698.306>
LayerCount: 2
Fore
SplineSet
61.6699 285.2 m 0xc0
 96.1045 373.617 153.67 423.2 216.92 423.2 c 0xc0
 249.793 423.2 282.015 419.877 303.17 377.2 c 1
 333.195 404.562 372.17 423.2 423.92 423.2 c 0xa0
 474.757 423.2 499.82 400.2 522.82 359.95 c 1xc0
 580.32 417.45 626.131 423.2 682.67 423.2 c 0xa0
 722.92 423.2 768.868 399.394 757.42 359.95 c 2xc0
 628.493 -84.25 l 2
 617.771 -121.013 639.993 -153.25 697.493 -153.25 c 0
 737.743 -153.25 749.243 -136 772.243 -113 c 1
 766.493 -153.25 731.993 -193.5 691.743 -193.5 c 0
 599.743 -193.5 555.969 -141.75 570.993 -90 c 2
 682.67 296.7 l 2
 694.8 338.701 716.346 382.36 672.555 382.36 c 0xa0
 614.158 382.36 539.937 343.886 522.82 285.2 c 2
 442.32 9.2002 l 2
 437.269 -8.07617 371.401 -2.2998 384.82 43.7002 c 2
 465.32 319.7 l 2
 496.591 426.915 323.059 373.105 309.159 325.45 c 2
 216.92 9.2002 l 2
 211.587 -9.03613 146.232 -1.51367 159.42 43.7002 c 2
 239.92 319.7 l 2
 245.011 337.155 231.499 359.95 205.42 359.95 c 0
 147.92 359.95 126.267 314.617 95.8105 255.189 c 0
 84.6699 233.45 52.3369 261.238 61.6699 285.2 c 0xc0
EndSplineSet
EndChar

StartChar: n
Encoding: 110 110 13
Width: 563
VWidth: 0
Flags: W
HStem: -194.025 40.4551<375.794 477.17> 359.429 63.5713<146.247 240.885> 381.952 41.0479<339.171 435.071>
LayerCount: 2
Fore
SplineSet
61.6787 284.299 m 0xc0
 96.2881 373.165 154.146 423 217.717 423 c 0xc0
 250.756 423 283.142 419.659 304.404 376.767 c 1
 335.316 414.6 352.115 423 419.316 423 c 0xa0
 459.771 423 505.943 399.073 494.445 359.429 c 2xc0
 365.783 -84.2207 l 2
 355.008 -121.17 377.342 -153.57 435.134 -153.57 c 0
 475.589 -153.57 487.147 -136.233 510.264 -113.117 c 1
 504.485 -153.57 469.81 -194.025 429.354 -194.025 c 0
 336.888 -194.025 292.892 -142.013 307.991 -90 c 2
 419.316 295.857 l 2
 431.495 338.074 453.357 381.952 409.149 381.952 c 0xa0
 360.517 381.952 320.188 358.227 310.425 324.753 c 2
 217.717 6.89746 l 2
 214.345 -4.66113 146.67 -3.87012 159.925 41.5723 c 2
 240.832 318.975 l 2
 245.949 336.519 232.369 359.429 206.157 359.429 c 0
 148.365 359.429 126.603 313.865 95.9922 254.136 c 0
 84.7949 232.286 52.2979 260.216 61.6787 284.299 c 0xc0
EndSplineSet
EndChar

StartChar: o
Encoding: 111 111 14
Width: 503
VWidth: 0
Flags: W
HStem: -0.452148 24.2656<168.863 237.535> 382 41<246.561 341.495>
VStem: 71 81.2852<56.1175 254.005> 358 73.7998<166.135 356.515>
LayerCount: 2
Fore
SplineSet
195.709 -0.452148 m 3
 111.999 -0.452148 71 69.6475 71 172.2 c 3
 71 290 169.34 423 292.34 423 c 3
 390.74 423 431.8 336.2 431.8 246 c 3
 431.8 192.998 381.341 -0.452148 195.709 -0.452148 c 3
203.371 23.8135 m 3
 267.805 23.8135 358 160.62 358 295.2 c 3
 358 324 356.34 382 292.34 382 c 3
 218.54 382 152.285 237.8 152.285 110.66 c 3
 152.285 44.8398 163.866 23.8135 203.371 23.8135 c 3
EndSplineSet
EndChar

StartChar: p
Encoding: 112 112 15
Width: 573
VWidth: 0
Flags: W
HStem: 0 61.9336<241.363 380.77> 368.079 54.9209<274.877 419.787>
VStem: 443.799 56.3486<127.138 343.862>
LayerCount: 2
Fore
SplineSet
49.0674 -167 m 2
 160.897 252.15 l 2
 185.568 344.619 247.846 423 358 423 c 3
 468.151 423 500.147 360 500.147 227.55 c 3
 500.147 89.9902 400.749 0 296.199 0 c 3
 234.699 0 179.349 36.9004 179.349 91.9092 c 1
 110.567 -167 l 2
 101.467 -200.878 39.1406 -203.951 49.0674 -167 c 2
211.995 202.814 m 3
 211.995 122.978 234.697 61.9336 295.981 61.9336 c 3
 388.449 61.9336 443.799 129.15 443.799 227.55 c 3
 443.799 289.05 437.654 368.079 363.713 368.079 c 3
 246.995 368.079 211.995 274.885 211.995 202.814 c 3
EndSplineSet
EndChar

StartChar: q
Encoding: 113 113 16
Width: 509
VWidth: 0
Flags: W
HStem: -193.76 61.5<96.416 232.739 302.571 422.365> 0 43.0498<160.937 243.492> 379.95 43.0498<232.646 321.742>
VStem: 72 386.516
LayerCount: 2
Fore
SplineSet
96.416 -193.76 m 1
 96.416 -132.26 l 1
 200.966 -132.26 l 2
 225.565 -132.26 225.204 -132.26 237.865 -89.21 c 2
 277.844 43.0498 l 1
 238.05 6.15039 201.15 0 164.25 0 c 3
 82.5654 0 72 91.5137 72 159.9 c 3
 72 319.8 169.466 423 267.865 423 c 3
 335.516 423 353.966 423 383.161 393.383 c 1
 420.396 393.383 421.615 423 458.516 423 c 1
 305.516 -89.21 l 2
 292.784 -132.137 323.966 -132.26 348.565 -132.26 c 2
 422.365 -132.26 l 1
 422.365 -193.76 l 1
 96.416 -193.76 l 1
188.851 43.0498 m 3
 330.3 43.0498 390.865 379.95 286.315 379.95 c 3
 149.268 379.95 104.865 43.0498 188.851 43.0498 c 3
EndSplineSet
EndChar

StartChar: r
Encoding: 114 114 17
Width: 492
VWidth: 0
Flags: W
HStem: 0 21G<133.505 157.283> 356.72 66.2803<295.765 339.58> 387.15 35.8496<128.988 191.257>
VStem: 339.58 100.453<314.749 356.72>
LayerCount: 2
Fore
SplineSet
72.2568 244.615 m 1xb0
 58.4014 304.448 74.4883 423 178.889 423 c 3
 261.356 423 245.996 348.996 227.478 286.774 c 1
 253.533 374.336 300.688 423 378.988 423 c 3xb0
 415.23 423 440.033 404.55 440.033 369.75 c 3
 440.033 326.25 417.384 308.812 387.488 308.812 c 3
 365.507 308.812 339.58 317.954 339.58 356.72 c 1xd0
 297.727 356.72 277.006 329.855 266.033 291.45 c 2
 196.433 47.8496 l 2
 188.218 19.0977 170.333 0 144.232 0 c 3
 122.778 0 99.1465 11.8496 109.433 47.8496 c 2
 179.033 291.45 l 2
 194.236 344.663 205.133 387.15 170.333 387.15 c 3
 120.211 387.15 79.8877 317.216 72.2568 244.615 c 1xb0
EndSplineSet
EndChar

StartChar: s
Encoding: 115 115 18
Width: 502
VWidth: 0
Flags: W
HStem: 0 40.4004<177.39 299.525> 254.52 82.0283<352.153 377.233> 387.84 35.1602<251.048 345.724>
VStem: 64 119.242<90.7154 175.385> 131.594 96.9609<277.801 373.288> 325.515 76.6357<61.0978 152.724> 349.754 88.8799<257.587 336.486>
LayerCount: 2
Fore
SplineSet
119.173 185.27 m 3xf4
 147.76 185.27 183.242 169.69 183.242 135.438 c 3
 183.242 109.065 165.376 97.2773 152.986 87.3848 c 1
 170.848 58.4443 196.234 40.4004 232.594 40.4004 c 3
 272.365 40.4004 325.515 64.6396 325.515 96.96 c 3xf4
 325.515 198.298 131.594 210.08 131.594 311.08 c 3
 131.594 391.88 225.368 423 297.72 423 c 3
 390.64 423 438.634 363.6 438.634 307.04 c 3
 438.634 273.47 425.36 254.52 394.194 254.52 c 3
 361.874 254.52 349.754 271.803 349.754 298.96 c 3
 349.754 315.12 361.874 336.548 377.233 336.548 c 1
 361.484 362.838 333.594 387.84 297.234 387.84 c 3
 254.047 387.84 228.555 355.52 228.555 319.16 c 3xea
 228.555 262.6 402.15 202 402.15 124.76 c 3
 402.15 28.5068 305.315 0 236.634 0 c 3
 143.952 0 64 25.3545 64 110.522 c 3
 64 153.533 85.1191 185.27 119.173 185.27 c 3xf4
EndSplineSet
EndChar

StartChar: t
Encoding: 116 116 19
Width: 380
VWidth: 0
Flags: W
HStem: 0 21G<151.24 220.648> 387 60.2002<69.4613 153.918 260.087 322.039>
LayerCount: 2
Fore
SplineSet
303.452 194.541 m 0
 325.5 175.5 261.169 0 180.128 0 c 3
 122.352 0 70.8115 47.1143 92.6279 136.337 c 2
 153.918 387 l 1
 83.3506 387 l 2
 57.5498 387 57.5498 447.2 83.3506 447.2 c 2
 168.547 447.2 l 1
 206.161 602 l 2
 214.541 637.891 307.5 640.5 297.702 602 c 1
 260.087 447.2 l 1
 308.15 447.2 l 2
 333.95 447.2 333.95 387 308.15 387 c 2
 245.458 387 l 1
 193.988 180.142 l 2
 160.436 42.0527 223.928 69.9316 271.101 176.96 c 0
 280.445 198.163 292.584 203.927 303.452 194.541 c 0
EndSplineSet
EndChar

StartChar: u
Encoding: 117 117 20
Width: 591
VWidth: 0
Flags: W
HStem: 0 42.2998<209.466 284.069 394.529 469.465> 382.106 40.8936<153.72 222.797>
LayerCount: 2
Fore
SplineSet
60.5479 221.732 m 1
 54.4639 262.044 98.7188 423 209.344 423 c 3
 350.344 423 232.844 188 212.576 122.293 c 0
 201.35 85.8955 204.644 42.2998 232.844 42.2998 c 3
 291.576 42.2998 318.522 108.1 326.844 136.3 c 2
 411.444 423 l 1
 486.644 423 l 1
 402.044 136.3 l 2
 388.325 89.8066 378.544 43 430.244 43 c 3
 488.782 43 524.244 155.1 528.944 178.6 c 1
 528.944 94 496.044 0 406.744 0 c 3
 340.944 0 348.045 62.9424 350.344 112.8 c 1
 333.945 34.7422 295.562 0 214.044 0 c 3
 166.86 0 136.193 39.8965 136.193 101.164 c 3
 136.193 188.009 279.758 382.106 200.091 382.106 c 3
 141.878 382.106 77.667 277.249 60.5479 221.732 c 1
EndSplineSet
EndChar

StartChar: v
Encoding: 118 118 21
Width: 583
VWidth: 0
Flags: W
HStem: 0 50<168.445 261.09> 325.07 67.1807<404.742 504.924> 403 20G<522.21 531.542> 544.89 21G<55.0166 58.7715> 580 50<88.5541 162.778>
VStem: 100.709 60<55.3684 229.682> 188.867 55.0654<340.192 556.553>
LayerCount: 2
Fore
SplineSet
49 544.89 m 1
 61.0332 574.149 94.5293 630 136.709 630 c 3
 251.38 630 243.933 509.927 243.933 477.709 c 3
 243.933 356.343 160.709 230 160.709 110 c 3
 160.709 80 170.709 50 210.709 50 c 3
 300.709 50 320.709 213 320.709 333 c 3
 320.709 373 339.214 423 380.709 423 c 3
 420.709 423 423.13 392.251 457.007 392.251 c 3
 489.968 392.251 509.712 406.98 534.709 423 c 1
 528.375 387.611 506.502 325.07 459.211 325.07 c 3
 430.34 325.07 394.847 382.082 374.408 299.74 c 0
 355.607 224 380.709 0 200.709 0 c 3
 134.189 0 100.709 50 100.709 110 c 3
 100.709 240 188.867 295.839 188.867 453.48 c 3
 188.867 530.038 161.291 580 121.291 580 c 3
 83.6465 580 68.543 561.201 49 544.89 c 1
EndSplineSet
EndChar

StartChar: w
Encoding: 119 119 22
Width: 727
VWidth: 0
Flags: W
HStem: 0.125977 50.6377<201.71 264.751> 0.125977 37.4053<428.63 486.652> 307.708 115.292<524.448 591.096>
VStem: 514.255 142.75<311.983 401.046>
LayerCount: 2
Fore
SplineSet
56 206.254 m 1xb0
 71.9443 283.08 127.404 423 203.557 423 c 3
 244.4 423 267.73 395.263 267.73 301.092 c 3
 267.73 203.227 163.066 50.7637 215.901 50.7637 c 3xb0
 313.765 50.7637 347.426 277.738 403.818 412.987 c 0
 407.589 422.031 424.164 423 443.87 423 c 3
 463.381 423 486.055 421.932 483.923 412.987 c 0
 429.445 184.391 382.942 37.5312 458.509 37.5312 c 3
 510.006 37.5312 614.435 234.465 588.634 307.708 c 1
 522.524 307.708 514.255 319.866 514.255 354.023 c 3
 514.255 407.078 544.141 423 574.04 423 c 3
 652.438 423 657.005 352.419 657.005 286.756 c 3
 657.005 201.865 574.033 0.125977 453.876 0.125977 c 3x70
 390.729 0.125977 350.839 26.1543 339.41 92.6699 c 1
 304.834 55.3066 293.667 0.125977 203.55 0.125977 c 3
 3.65137 0.125977 220.068 257.3 190.537 342.996 c 0
 178.386 377.114 109.114 269.891 56 206.254 c 1xb0
EndSplineSet
EndChar

StartChar: y
Encoding: 121 121 23
Width: 510
VWidth: 0
Flags: WO
HStem: -193.76 15<145.446 201.899> 0 20<202.208 254.049> 383 40<132.426 207.984>
VStem: 58 65<-172.699 -143.76> 133 130<85 343>
LayerCount: 2
Fore
SplineSet
70.9785 246.337 m 1
 72.0518 327.891 103 423 193 423 c 3
 228 423 263 403 263 343 c 3
 263 273.427 138 20 223 20 c 3
 258 20 304.506 54.582 308 70 c 2
 388 423 l 1
 458 423 l 1
 378 70 l 2
 341.478 -91.1553 293 -193.76 168 -193.76 c 3
 97.2607 -193.76 58 -168.76 58 -133.76 c 3
 58 -95.3486 78 -73.7598 108 -73.7598 c 3
 138 -73.7598 158 -88.7598 158 -108.76 c 3
 158 -128.76 138 -148.76 123 -143.76 c 1
 123 -158.76 142.425 -178.76 178 -178.76 c 3
 233 -178.76 271.549 -90 301.549 45 c 1
 276.549 20 253 0 203 0 c 3
 183 0 133 20 133 85 c 3
 133 190 278 383 173 383 c 3
 123 383 93 313 70.9785 246.337 c 1
EndSplineSet
EndChar

StartChar: z
Encoding: 122 122 24
Width: 461
VWidth: 0
Flags: W
HStem: 0.246094 21G<70.7832 95.6265 227.819 307.879> 403 20G<192.362 249.804 360.363 388.553>
VStem: 58 57.6631<0.511929 87.0843> 349.811 56.8857<333.696 422.839>
LayerCount: 2
Fore
SplineSet
377.415 196.587 m 1
 377.415 119.072 369.235 0.246094 246.522 0.246094 c 3
 209.115 0.246094 178.745 25.9551 139.088 87.8564 c 1
 113.753 87.8564 108.863 63.0186 115.663 37.4023 c 0
 122.913 10.0898 108.349 0.246094 82.9043 0.246094 c 3
 58.6621 0.246094 58 8.83789 58 55.4219 c 3
 58 83.8291 70.0098 94.3682 88.6338 113.084 c 1
 296.76 300.487 l 1
 189.067 380.172 156.143 294.13 114.889 245.281 c 0
 104.447 232.918 84.2988 226.052 78.7236 239.222 c 0
 75.0078 248 154.549 423 230.176 423 c 3
 269.432 423 309.376 402.673 335.502 332.923 c 1
 362.531 349.478 355.633 362.479 349.811 382.159 c 0
 345.105 398.064 343.294 423 377.432 423 c 3
 399.674 423 406.696 406.658 406.696 369.915 c 3
 406.696 350.144 400.778 337.699 388.659 326.616 c 2
 167.019 123.896 l 1
 259.819 54.7002 298.298 62.9258 377.415 196.587 c 1
EndSplineSet
EndChar

StartChar: cacute
Encoding: 263 263 25
Width: 462
VWidth: 0
Flags: W
HStem: -164 80<176.026 272.464> 0 21G<182.8 208.8> 403.2 20G<274.4 324.4>
VStem: 70 322.4<276 331.2>
LayerCount: 2
Fore
SplineSet
288.4 389.6 m 0
 179.6 348.8 118.8 56.7998 204.4 33.5996 c 1
 277.2 22.4004 292.4 94.4004 344.4 188 c 0
 350 196.8 379.6 201.6 379.6 167.2 c 1
 379.6 -8 357.874 -164 160.833 -164 c 3
 118.857 -164 107.434 -84 232.833 -84 c 3
 302.841 -84 299.312 12.4297 296.415 38 c 1
 275.087 18.8428 250.644 5.4502 222.8 1.59961 c 0
 217.2 0.799805 211.6 0 206 0 c 3
 159.6 0 103.6 20 81.2002 98.4004 c 0
 74 124 70 147.2 70 169.6 c 3
 70 342.4 256.4 423.2 292.4 423.2 c 0
 356.4 423.2 367.6 405.6 387.6 353.6 c 1
 390.8 342.4 392.4 331.2 392.4 320 c 3
 392.4 276 366.8 237.6 311.6 249.6 c 0
 271.6 259.2 289.2 320.8 336.4 347.2 c 1
 346.8 361.6 324.4 403.2 288.4 389.6 c 0
EndSplineSet
EndChar

StartChar: lslash
Encoding: 322 322 26
Width: 366
VWidth: 0
Flags: W
HStem: 0 21G<123.201 179.379>
VStem: 221.847 67.8291<538.647 616.389>
LayerCount: 2
Fore
SplineSet
262.342 151.857 m 0
 262.342 165.744 322.097 155.564 303.85 111.362 c 0
 282.527 59.7119 201.703 0 157.055 0 c 3
 89.3477 0 47.7383 39.0156 63.2373 92.1172 c 0
 119.318 284.251 156.362 420.782 221.847 613.501 c 0
 239.841 646.19 289.676 624.638 289.676 598.314 c 0
 289.676 572.405 114.397 138.972 145.78 81.2666 c 0
 161.858 51.7031 262.342 75.9277 262.342 151.857 c 0
EndSplineSet
EndChar

StartChar: J
Encoding: 74 74 27
Width: 577
VWidth: 0
Flags: W
HStem: 0 45<47 173.243 254.918 407> 590 40<155 317.046 399.422 530>
LayerCount: 2
Fore
SplineSet
47 0 m 1
 47 45 l 1
 147 45 l 2
 167 45 166.846 45.0479 177 80 c 2
 315 555 l 2
 325 590 305 590 285 590 c 2
 155 590 l 1
 155 630 l 1
 530 630 l 1
 530 590 l 1
 425 590 l 2
 405 590 405 590 395 555 c 2
 257 80 l 2
 246.846 45.0479 267 45 287 45 c 2
 407 45 l 1
 407 0 l 1
 47 0 l 1
EndSplineSet
EndChar

StartChar: oacute
Encoding: 243 243 28
Width: 507
VWidth: 0
Flags: W
HStem: 0 24.0293<172.351 241.889> 382.088 40.6006<250.186 350.164>
VStem: 75.8643 80.6992<120.753 257.54> 360.063 73.0801<165.737 304.692>
LayerCount: 2
Fore
SplineSet
199.355 0 m 3
 165.615 0 138.468 11.3887 118.628 31.8887 c 1
 79.9238 -11.7324 l 1
 58 9.54199 l 1
 100.224 57.2881 l 1
 83.5879 86.6162 75.8643 125.216 75.8643 170.968 c 3
 75.8643 260.288 173.304 422.688 295.104 422.688 c 3
 335.604 422.688 366.283 407.259 388.311 382.812 c 1
 425.023 422.688 l 1
 445.324 402.388 l 1
 406.661 357.094 l 1
 424.818 324.94 433.144 284.494 433.144 244.048 c 3
 433.144 179.088 360.064 0 199.355 0 c 3
157.774 75.5127 m 1
 161.936 37.0879 175.783 24.0293 206.944 24.0293 c 3
 270.749 24.0293 360.063 159.506 360.063 292.768 c 3
 360.063 296.685 360.25 300.676 360.25 304.692 c 1
 157.774 75.5127 l 1
357.234 347.846 m 1
 351.438 367.603 335.81 382.088 295.104 382.088 c 3
 224.058 382.088 156.563 243.951 156.563 120.584 c 1
 357.234 347.846 l 1
EndSplineSet
EndChar

StartChar: nacute
Encoding: 324 324 29
Width: 623
VWidth: 0
Flags: W
HStem: 0 45.8438<440.476 497.93> 361.016 61.9844<145.188 240.326> 383.35 39.6504<346.362 461.046>
LayerCount: 2
Fore
SplineSet
62.6641 286.521 m 0xc0
 96.9824 374.636 154.274 423 217.309 423 c 3xc0
 250.069 423 282.259 420.738 303.34 378.207 c 1
 343.691 424.05 383.784 423 445.434 423 c 3xa0
 485.547 423 531.549 400.27 519.95 361.016 c 2xc0
 445.455 108.878 l 2
 434.643 72.2783 433.994 45.8438 468.377 45.8438 c 3
 502.76 45.8438 542.872 154.722 560.063 183.373 c 1
 565.793 143.259 525.681 0 456.916 0 c 3
 388.15 0 372.998 51.625 388.15 103.147 c 2
 445.455 297.981 l 2
 457.748 339.779 479.217 383.35 435.374 383.35 c 3xa0
 355.86 383.35 315.924 349.309 309.311 326.634 c 2
 217.385 11.46 l 2
 213.001 -3.56836 142.767 -13.5205 160.081 45.8438 c 2
 240.307 320.902 l 2
 245.381 338.299 231.914 361.016 205.925 361.016 c 3
 148.62 361.016 127.041 315.837 96.6885 256.612 c 0
 85.5859 234.946 53.3633 262.641 62.6641 286.521 c 0xc0
EndSplineSet
EndChar

StartChar: uni1E3F
Encoding: 7743 7743 30
Width: 855
VWidth: 0
Flags: W
HStem: 0 45.5996<673.302 730.451> 359.1 62.7002<144.766 239.502> 381.315 40.4844<590.858 693.833>
LayerCount: 2
Fore
SplineSet
62.6553 285 m 0xc0
 96.792 372.648 153.855 421.8 216.555 421.8 c 3xc0
 249.142 421.8 281.084 418.506 302.055 376.2 c 1
 331.819 403.324 370.455 421.8 421.755 421.8 c 3xa0
 472.15 421.8 496.995 399 519.795 359.1 c 1xc0
 576.795 416.1 622.208 421.8 678.255 421.8 c 3xa0
 718.155 421.8 763.891 398.146 752.355 359.1 c 2xc0
 678.255 108.3 l 2
 667.499 71.8945 666.855 45.5996 701.055 45.5996 c 3
 735.255 45.5996 775.155 153.9 792.255 182.4 c 1
 797.955 142.5 758.055 0 689.655 0 c 3
 621.255 0 606.183 51.3525 621.255 102.6 c 2
 678.255 296.4 l 2
 690.483 337.977 711.838 381.315 668.228 381.315 c 3xa0
 610.072 381.315 536.763 343.176 519.795 285 c 2
 439.995 11.4004 l 2
 436.67 0 364.752 -16.7881 382.995 45.5996 c 2
 462.795 319.2 l 2
 493.794 425.482 321.771 372.14 307.992 324.9 c 2
 216.555 11.4004 l 2
 213.229 0 141.312 -16.7881 159.555 45.5996 c 2
 239.355 319.2 l 2
 244.401 336.504 231.008 359.1 205.155 359.1 c 3
 148.155 359.1 126.69 314.161 96.499 255.251 c 0
 85.4551 233.7 53.4033 261.247 62.6553 285 c 0xc0
EndSplineSet
EndChar

StartChar: longs
Encoding: 383 383 31
Width: 332
VWidth: 0
Flags: W
HStem: 0 75.124<49.6591 105.779> 560.539 69.3447<232.815 283.33>
VStem: 48 57.7871<52.0088 74.2035>
LayerCount: 2
Fore
SplineSet
88.4512 0 m 3
 65.3359 0 48 10.0703 48 34.6729 c 3
 48 59.2744 59.5576 75.124 82.6719 75.124 c 3
 94.2295 75.124 105.787 63.5664 105.787 52.0088 c 1
 157.796 161.805 140.46 629.884 250.256 629.884 c 3
 267.592 629.884 284.929 618.326 284.929 595.211 c 3
 284.929 583.653 273.371 560.539 256.034 560.539 c 3
 245.812 560.539 238.945 565.88 232.513 572.886 c 1
 183.758 451.017 204.025 0 88.4512 0 c 3
EndSplineSet
EndChar
